<svg xmlns="http://www.w3.org/2000/svg" width="36" height="36" viewBox="0 0 36 36" role="img" aria-label="Message Channel Tracker 활성화된 로고">
  <defs>
    <linearGradient id="g-active" x1="0" y1="0" x2="1" y2="1">
      <stop offset="0%" stop-color="#10b981"/>
      <stop offset="100%" stop-color="#34d399"/>
    </linearGradient>
    <style>
      .bg{fill:url(#g-active)}
      .fg{fill:#ffffff}
    </style>
  </defs>
  <rect x="0" y="0" width="36" height="36" rx="8" class="bg"/>
  <!-- stylized message lines forming MCT motif -->
  <path class="fg" d="M8 12h20a1 1 0 0 1 0 2H8a1 1 0 0 1 0-2Zm0 6h16a1 1 0 0 1 0 2H8a1 1 0 0 1 0-2Zm0 6h12a1 1 0 0 1 0 2H8a1 1 0 0 1 0-2Z"/>
  <circle cx="28" cy="13" r="1.5" class="fg"/>
  <circle cx="24" cy="19" r="1.5" class="fg"/>
  <circle cx="20" cy="25" r="1.5" class="fg"/>
</svg>